<svg xmlns="http://www.w3.org/2000/svg" viewBox="0 0 512 512"><path d="M256,0C114.52,0,0,114.5,0,256S114.5,512,256,512a256.76,256.76,0,0,0,139.78-41.52A24.81,24.81,0,0,0,401.51,434L391,421.13a24.7,24.7,0,0,0-32.38-5.29A190.5,190.5,0,0,1,256,445.94C151.27,445.94,66.06,360.73,66.06,256S151.27,66.06,256,66.06c103.37,0,189.94,59.48,189.94,165.17,0,40-21.78,82.31-60.05,86.39-17.91-.47-17.46-13.27-13.91-31l24.19-125a24.77,24.77,0,0,0-24.32-29.48H325.41a14,14,0,0,0-13.86,12.38v.09c-15.17-18.47-41.76-22.47-61.91-22.47-77,0-142.28,64.24-142.28,156.34,0,67.41,38,109.29,99.1,109.29,27.86,0,59.22-16.14,77.41-39.57,9.83,35.2,41.92,35.2,73,35.2C469.27,383.39,512,309.47,512,231.23,512,90.48,398.48,0,256,0ZM233.62,314.25c-23,0-37.23-16.13-37.23-42.09,0-46.44,31.77-75.07,60.52-75.07,23,0,36.75,15.73,36.75,42.08,0,46.52-35,75.08-60,75.08Z"/></svg>
