<svg xmlns="http://www.w3.org/2000/svg" viewBox="0 0 512 512"><path d="M213.14,298.29c0,22-16,29-35.65,29H125.94V266.86h52.57c21.26.11,34.63,8.91,34.63,31.43Zm-8.8-94.06c0-20.23-15.65-25-33-25H126.06v51.2h48.8c17.25,0,29.48-7.54,29.48-26.17Zm151.2,26.51c-20.91,0-34.85,13-36.23,33.95H390.4c-1.94-21.15-12.91-33.95-34.86-33.95ZM512,54.86V457.14A54.87,54.87,0,0,1,457.14,512H54.86A54.87,54.87,0,0,1,0,457.14V54.86A54.87,54.87,0,0,1,54.86,0H457.14A54.87,54.87,0,0,1,512,54.86Zm-201.49,120h88.92v-21.6H310.51ZM261.37,300.91c0-27.54-13-51.31-40-59,19.66-9.37,29.94-20.23,29.94-42.28,0-43.66-32.57-54.29-70.17-54.29H77.71V364.8h106.4C224,364.57,261.37,345.49,261.37,300.91ZM434.29,284c0-47-27.55-86.17-77.26-86.17-48.46,0-81.26,36.34-81.26,84.11,0,49.49,31.2,83.43,81.26,83.43,37.94,0,62.51-17,74.4-53.48H392.91c-4.22,13.6-21.25,20.68-34.51,20.68-25.6,0-39-15-39-40.34H433.94c.12-2.63.35-5.49.35-8.23Z"/></svg>
