<svg xmlns="http://www.w3.org/2000/svg" viewBox="0 0 512 512"><path d="M32,464a48,48,0,0,0,48,48H432a48,48,0,0,0,48-48V192H32ZM352,268a12,12,0,0,1,12-12h40a12,12,0,0,1,12,12v40a12,12,0,0,1-12,12H364a12,12,0,0,1-12-12Zm0,128a12,12,0,0,1,12-12h40a12,12,0,0,1,12,12v40a12,12,0,0,1-12,12H364a12,12,0,0,1-12-12ZM224,268a12,12,0,0,1,12-12h40a12,12,0,0,1,12,12v40a12,12,0,0,1-12,12H236a12,12,0,0,1-12-12Zm0,128a12,12,0,0,1,12-12h40a12,12,0,0,1,12,12v40a12,12,0,0,1-12,12H236a12,12,0,0,1-12-12ZM96,268a12,12,0,0,1,12-12h40a12,12,0,0,1,12,12v40a12,12,0,0,1-12,12H108a12,12,0,0,1-12-12Zm0,128a12,12,0,0,1,12-12h40a12,12,0,0,1,12,12v40a12,12,0,0,1-12,12H108a12,12,0,0,1-12-12ZM432,64H384V16A16,16,0,0,0,368,0H336a16,16,0,0,0-16,16V64H192V16A16,16,0,0,0,176,0H144a16,16,0,0,0-16,16V64H80a48,48,0,0,0-48,48v48H480V112A48,48,0,0,0,432,64Z"/></svg>
