<svg xmlns="http://www.w3.org/2000/svg" viewBox="0 0 512 512"><path d="M0,169.14V27.43A27.37,27.37,0,0,1,27.43,0H169.14a13.75,13.75,0,0,1,13.72,13.71V59.43a13.75,13.75,0,0,1-13.72,13.71h-96v96a13.75,13.75,0,0,1-13.71,13.72H13.71A13.75,13.75,0,0,1,0,169.14ZM329.14,13.71V59.43a13.75,13.75,0,0,0,13.72,13.71h96v96a13.75,13.75,0,0,0,13.71,13.72h45.72A13.75,13.75,0,0,0,512,169.14V27.43A27.37,27.37,0,0,0,484.57,0H342.86A13.75,13.75,0,0,0,329.14,13.71ZM498.29,329.14H452.57a13.75,13.75,0,0,0-13.71,13.72v96h-96a13.75,13.75,0,0,0-13.72,13.71v45.72A13.75,13.75,0,0,0,342.86,512H484.57A27.37,27.37,0,0,0,512,484.57V342.86A13.75,13.75,0,0,0,498.29,329.14ZM182.86,498.29V452.57a13.75,13.75,0,0,0-13.72-13.71h-96v-96a13.75,13.75,0,0,0-13.71-13.72H13.71A13.75,13.75,0,0,0,0,342.86V484.57A27.37,27.37,0,0,0,27.43,512H169.14A13.75,13.75,0,0,0,182.86,498.29Z"/></svg>
