<svg xmlns="http://www.w3.org/2000/svg" viewBox="0 0 512 512"><path d="M171.25,408.36c0,2.06-2.37,3.71-5.37,3.71-3.4.31-5.78-1.34-5.78-3.71,0-2.07,2.38-3.72,5.37-3.72C168.57,404.33,171.25,406,171.25,408.36Zm-32.1-4.65c-.72,2.07,1.34,4.44,4.44,5.06,2.68,1,5.78,0,6.4-2.06s-1.34-4.44-4.44-5.37c-2.69-.72-5.68.31-6.4,2.37ZM184.77,402c-3,.72-5.05,2.68-4.74,5.06.31,2.06,3,3.4,6.09,2.68s5-2.68,4.74-4.75S187.77,401.65,184.77,402ZM252.7,6.4C109.52,6.4,0,115.09,0,258.27,0,372.74,72.05,470.71,175,505.18c13.21,2.38,17.86-5.78,17.86-12.49,0-6.4-.31-41.7-.31-63.38,0,0-72.26,15.49-87.44-30.76,0,0-11.76-30-28.69-37.78,0,0-23.64-16.21,1.65-15.9,0,0,25.7,2.07,39.84,26.64,22.61,39.84,60.49,28.38,75.26,21.57,2.37-16.52,9.08-28,16.51-34.79C152,351.89,93.73,343.53,93.73,244.23c0-28.39,7.84-42.63,24.36-60.8-2.68-6.71-11.46-34.38,2.68-70.09,21.58-6.71,71.23,27.87,71.23,27.87a243.7,243.7,0,0,1,129.65,0s49.65-34.68,71.23-27.87c14.14,35.82,5.37,63.38,2.68,70.09,16.52,18.27,26.63,32.51,26.63,60.8,0,99.61-60.8,107.56-118.5,114.06,9.5,8.16,17.55,23.64,17.55,47.9,0,34.79-.31,77.83-.31,86.3,0,6.71,4.75,14.86,17.86,12.49C442,470.71,512,372.74,512,258.27,512,115.09,395.87,6.4,252.7,6.4Zm-152.36,356c-1.35,1-1,3.41.72,5.37,1.65,1.65,4,2.37,5.37,1,1.34-1,1-3.4-.73-5.37C104.05,361.8,101.68,361.08,100.34,362.42Zm-11.15-8.36c-.73,1.34.31,3,2.37,4,1.65,1,3.72.72,4.44-.73s-.31-3-2.37-4C91.56,352.72,89.91,353,89.19,354.06Zm33.44,36.75c-1.65,1.34-1,4.44,1.34,6.4,2.38,2.37,5.37,2.68,6.71,1,1.35-1.34.73-4.44-1.34-6.4C127.07,389.47,124,389.16,122.63,390.81Zm-11.77-15.18c-1.65,1-1.65,3.72,0,6.1s4.44,3.4,5.79,2.37c1.65-1.34,1.65-4,0-6.4-1.45-2.37-4.13-3.41-5.79-2.07Z"/></svg>
