<svg xmlns="http://www.w3.org/2000/svg" viewBox="0 0 512 512"><path d="M433.77,306.25V433.64A21.29,21.29,0,0,1,412.43,455H309.31a10.71,10.71,0,0,1-10.67-10.67V344.74A10.7,10.7,0,0,0,288,334.07H224a10.71,10.71,0,0,0-10.67,10.67v99.57A10.7,10.7,0,0,1,202.63,455H99.51a21.29,21.29,0,0,1-21.33-21.34V306.25A10.68,10.68,0,0,1,82.09,298L249.22,160.37a10.83,10.83,0,0,1,13.6,0L430,298a10.89,10.89,0,0,1,3.82,8.27Zm74.32-54.14-74.32-61.25V67.74A10.7,10.7,0,0,0,423.1,57.07H373.32a10.7,10.7,0,0,0-10.67,10.67v64.54L283.09,66.76a42.63,42.63,0,0,0-54.23,0L3.86,252.11a10.69,10.69,0,0,0-1.42,15l22.67,27.56a10.69,10.69,0,0,0,15,1.43l209.09-172.2a10.83,10.83,0,0,1,13.6,0l209.09,172.2a10.69,10.69,0,0,0,15-1.43l22.67-27.56A10.7,10.7,0,0,0,508.09,252.11Z"/></svg>
